/* XPM */
static char *_4e7035125d042cd8eff5f62c7902d0bOJqiY0QIiIKcY0CD[] = {
/* columns rows colors chars-per-pixel */
"60 60 39 1 ",
"  c #0000A4",
". c #00009E",
"X c #000058",
"o c #010198",
"O c #0000AF",
"+ c #00006E",
"@ c #0000B4",
"# c #00007E",
"$ c #0000AA",
"% c #000006",
"& c #020293",
"* c #000075",
"= c #000089",
"- c #0F0F01",
"; c #000084",
": c #00008E",
"> c #000060",
", c #0000BE",
"< c #000067",
"1 c #000079",
"2 c #1E1E26",
"3 c #0000B9",
"4 c #0000C4",
"5 c #00003F",
"6 c #000047",
"7 c #000021",
"8 c #000033",
"9 c #1A1A05",
"0 c #00004F",
"q c #0000CE",
"w c #151564",
"e c #505055",
"r c #101074",
"t c #171758",
"y c #1E1E19",
"u c #0707E0",
"i c #505057",
"p c #333338",
"a c #424227",
/* pixels */
"p*#################;waw&==::=:::::=::::==::====&#at#######1p",
"2$    .  .     . ..$r9r43,@3,3@@,3,3@33,,33,,,34&9t4OOO@@OO2",
"%$ &&&= o;:.1&.#o*++8-rq3,: 3 +1&=O$#1o@$=:.,3.&X-t4Ooo O.*%",
"% :#=  =*&..+=:*+1**6-t&1<++6<5685>#>5056X50<<006-t, O&&  <%",
"% =::uO*#+&::;+>#+0X8-277777777777777777%---------t,$@4$.**%",
"% ;=34o1::..o.;+++><8-rq,,33@O,@@,O@,4346ytttttt2yt4  .##<X%",
"% . O$$$o;.O.:**>X>>5-w3@4,$o O:o . $@.O89.@$  &X9tO; #1:*+%",
"%$o= O o;+;:&=:1++067-w@3qq$$@ $&. ..&. 79&o&:;#6-t,  :&=&X%",
"%$=#&.;#= #X+*1<#1+X7-w@@@$o   O. o#1#:;79& o=+<6-t,== $o*5%",
"%.1:.=*# @#<<X><+;107-w,OO o&O@O .***#+<79&Oo1o+5-w #O:o X5%",
"%o;&;:o+;**+X>*6X0X>7-w4O @$$@,@O&0<&=<X%9&:=&=<6-tq.&+<#16%",
"%o#o+*o#<+<*<6*<586<7-w, .., .$@@.:;#*0<79&=;:++0-w3*>*<*;6%",
"%.:##*+>X>1++>60<5<X7-w@4q&:oo=;;;&o;+>X%9&$=;+10-w3*#<>><6%",
"%.=:>+<+*066665565667-w,4qo;= .1;##;**>0%9&=&.X>5-2%%%%%%%%%",
"%%%%%%%%%%%%%%%%%%%%%-w4$ .==  .;&=>**X0%9&  .oX0-2yyyyyyyyy",
" 3$ $. ..$ .. %$O$ .$654..&&   .#o:1<X66%9=$o &*0-t@o371q33,",
",O.o$3$&&O;o.;%OO.4..>53..3$&. .#<#<8X>0%9=.1+*+5-t3.&7#q O,",
"3Ooo: o1;.;*:o%$,,$:=85,..@ =1;#<#*X5X06%9;oXXX>8-t@$.%#3OOO",
"$o.3Oo;#;::**#%O, ..o70q@OOoO=#<1+X><<XX%9&:><>X8-wO11%#q3@@",
".:oO4 *&o1=<*;%O@.1&:78;*++++X6566566878%y<>65877%8X76%;q$O$",
"$o#&3@=;#+X*++%$o$+#18%------------------y----888588579&, .o",
"O=#:=o;;&**1<X%O :+++8-twwwwwwwwwwwwwwwwwwtw22qq44,,q>9&@.oo",
"O$&&.=:$;+1X+>%$4=:<<8-#q,34,,,,@,3qO 444$$&-2@,O4 o 89&4o&o",
"@$:;.O&*:=#+X>%.:<#*>8-r4$.3qq@4,.@O.$O$@::X%23q,q4&&89&4O..",
" o*;.3.=:=:1X<%$#<<>+6-r,.Oquu4uu, :$& &#$+X%2@@34.&&79&,,  ",
"$. &.$@:*11*>>%777777%-r4@@3qq$3uq.&#**&;=>X%233.O..;79&q,O$",
" =o ..O#<<>>65%9999999yr,,@$3O..4$$o1=1;+XX<%23q3 .##89&3 3O",
" &=$ .&1+X><XX%2...o.w9r@.3@:= , ;$&#:=1<+X>%2@q,&. =79o@.@@",
"o:&:$o+<>XX<6>%2,O&$ X9r4O3@=; $.#$ =*&<<*+6%2@3,&o =79&4.o;",
"o==#=;+><*#+55%2@ .:oX-r4, OOO..#1=O:>>>>+*6%2@O.&O :79o.;o&",
"o: :+#*<<*#<X5%2@.&;*8-r4O;oOO .***<+*<65X65%2@@3:@$=79o.;##",
"o &==*<>06<<X5%2@ : #8-rO.3=. &1+#*><+<05><6%2@$4o=&;79&q=##",
"#oo;1##+00XX>6%2@@$++8-r&O;o$1*<<##*>>X><>05%234. #>*79o@ oo",
"#;#1*1;<X<XXX>%2@$$;<8-r43o$$*<<>##1<XXX0006%234.=::+79o@ .;",
"#=>+*<#<XX60XX%2O&:<#8-t;X+1X555566668788878%2@,&1&=#89o o.#",
"1:;+*+XXX8X655%2@o $<8-9---------------------2$O 1>++79&@;#1",
"=. =*=#>X0X0X0%23$=o*8-twttttttwwwtwwtwwtttw22$$OO1>X79 q &:",
"50558887%7%7%7%23 ;+X5-r43,,,,3OOO@OOO$.3@O -2$,.3$+X7965586",
"-999-778555587-2O$*1+8-r,,43OOO$@$o. .#+:=o#%2$O  .*0798655%",
"2rr;& $O@333OO22$ #;#8-r44q4$ OOq3#==o..:&;*%2$3.;+>079#@&&%",
"2O,44,,OO,@O$4%2 .;>*8-r4,,,qqO3O;111#o&=#:<%2$3=+X>>79r:+*%",
"2 3O3q,O3,.o@,%2@ =X+8-r43@3qu4; ;11*+;;1*;+%2$.<<<XX79##*>%",
"2,,@3uq$. @, @%y77%%%%-r33O3,qu$  =*+<<>*##<%2o=1>>>>79r;*X%",
"2, O$@@ &&@@=:%y9yyyyyyrO$4 o,$,  $&1+>*+>00%y%%%%%%%%9r;X<%",
"2,3$:o@$.o.@3$%23@ . w9rO3q.&oO  .1=&1<<XX55%yyyyyyyyy22222%",
"2,@oO3.&OO@=o$%23=3= 0-r,33@.o,,3.11#+><XX65%2@OOO,33333333%",
"2,3,@:  .&+o: %2, $$&5-r3 .OOO,3,3o;;>><>+>0%2@$ O@OOO:OO ;%",
"2,$Oo$@3.:X< $%24O=.#6-r4O  ..@,,3.O;0XX><+<%2@ ,u4O@.o  o#%",
"2,$o uuO:.&#o %2,O :.>-r3,$.@;;@3@..:>X>X066%2@@,4q,O.=o&#>%",
"2,$3Ouu3:.$;<#%2,$.:o8-r$@.&*11#..:<1#+>XX55%2O Oo,@O .;1*>%",
"2,$,O44.;;o05>%2,$@.*8-r @3:.##;#1#X*$;*<X60%2@3 o&..#+#*X<%",
"2@O@O$;#o=#+X<%2,3.=:5-rO @$3;*11==>+oo#*<XX%2@$o.o.:+<+<X>%",
"2O@@$;=&. .#*>%2, $#&6-r4 .@ =:;+#<XX#&=+XX5%2@$O :O.#<*&>6%",
"2, 4 =&;#$ =1>%2,@.>15-r@ ..;;$ =<>*XX>><066%233@&.@O.*: *5%",
"2@ .:.=6X;. 1+%243.++8-r@..&.o:O X<*+X65X655%2,@o;$$3$=#;;6%",
"2@.<*;;=<&*+>>%23.+++8-r33; q$>1*XX>XX586X65%2,$ O o:=+1#<5%",
"2$.#1+*+<<+><>%2@.*<<8-rOOOO:oX>>>X080<>5050%2,3@ o1**1*+5X%",
"2$&##1#+<<+*1#y2$=#1#09rOo$.1#*11*<X0<#1*X0+y2,$.# :*##1+<1%",
"p:=;##########pp:;1#;warq.;===#####11####11#pp,==1;########2",
"eeeieeeeeeeeeeeeeieeeeeeiieeiieeeeeiiieeeiieeeieeeeeeeeeeeip"
};
