/* XPM */
static char *ebf9cd4b42e6496e84cb14eb27538a2bWDEsZIEKhztbyzyf[] = {
/* columns rows colors chars-per-pixel */
"60 60 9 1 ",
"  c #2E3A3C",
". c #101A25",
"X c #394349",
"o c #525B69",
"O c #0B1520",
"+ c #3A444A",
"@ c #353F45",
"# c #4B5460",
"$ c #1C2631",
/* pixels */
"O.oooooooooooooooooooooooooo$O                              ",
"O.oooooooooooooooooooooooooo.O                              ",
"O.++++++++++++++++++++++#ooo$.@+++++++++++++++++++++++++@   ",
"O.X+++++++++++++++++++++++#o..@+++++++++++++++++++++++++X@  ",
"O.X+++++++++++++++++++++++#o..@++++++++++++++++++++++++++X  ",
"O.X+++++++++++++++++++++++#o..@+++++++++++++++++++++++++++  ",
"O.X+++++++++++++++++++++++#o..@+++++++++++++++++++++++++++  ",
"O.X+++++++++++++++++++++++#o..@+++++++++++++++++++++++++++  ",
"O.X+++++++++++++++++++++++#o..@+++++++++++++++++++++++++++  ",
"O.X+++++++++++++++++++++++#o..@+++++++++++++++++++++++++++  ",
"O.++++++++++++++++++++++++oo..@+++++++++++++++++++++++++++  ",
"O.   @  @  @  @  @  @  @  #o..@+++++++++++++++++++++++++++  ",
"OO$                       #o..@XXXXXXXXXXXXXXXXXXXXXXXXXXX  ",
"OOO..........................O..............................",
"OOOOOOOOOOOOOOOO........................OOOOO.O.O.O.O.O.O.OO",
"            .OO$oooooooooooooooooooooooo OOO                ",
"             ..#ooooooooooooooooooooooooo$O                 ",
"++++++++++@  ..X+XXXXXXXXXXXXXXXXXXXXX#oo$O@++++++++++++++++",
"+++++++++++  ..@++++++++++++++++++++++X#o$O@++++++++++++++++",
"+++++++++++  ..@++++++++++++++++++++++X#o$O@++++++++++++++++",
"+++++++++++  ..@++++++++++++++++++++++X#o$O@++++++++++++++++",
"+++++++++++  ..@++++++++++++++++++++++X#o$O@++++++++++++++++",
"+++++++++++  ..@++++++++++++++++++++++X#o$O@++++++++++++++++",
"+++++++++++  ..@++++++++++++++++++++++X#o$O@++++++++++++++++",
"+++++++++++  ..@++++++++++++++++++++++X#o$O@++++++++++++++++",
"+++++++++++  ..@++++++++++++++++++++++X#o$O@++++++++++++++++",
"+++++++++++  .O  @  @  @  @  @  @  @   #o$O@++++++++++++++++",
"XXXXXXXXXX+  .O.                       # OO.@XXXXXXXXXXXXXXX",
".............OOO.........................OOO................",
"OOOO.O.O.O.OOOOOOOOOOOOOOOOOOOO.............................",
"OO.                        .OO$ooooooooooooooooooooooooooooo",
"OO.                         ..#ooooooooooooooooooooooooooooo",
"O.   ++++++++++++++++++++@  ..X+XXXXXXXXXXXXXXXXXXXXXXXX+ooo",
"O.  @+++++++++++++++++++++  ..@++++++++++++++++++++++++++#oo",
"O.  ++++++++++++++++++++++  ..@+++++++++++++++++++++++++++oo",
"O.  ++++++++++++++++++++++  ..@+++++++++++++++++++++++++++oo",
"O.  ++++++++++++++++++++++  ..@+++++++++++++++++++++++++++oo",
"O.  ++++++++++++++++++++++  ..@+++++++++++++++++++++++++++oo",
"O.  ++++++++++++++++++++++  ..@+++++++++++++++++++++++++++oo",
"O.  @+++++++++++++++++++++  ..@+++++++++++++++++++++++++++oo",
"O.   @+++++++++++++++++++@  ..@+++++++++++++++++++++++++++oo",
"OO$     @  @  @  @  @  @    .O  @  @  @  @  @  @  @  @  @ oo",
"OOO$                       $OO.                           oo",
"OOOO.......................OOOO..........................O$.",
".............OOO........................OOOO................",
"ooooooooooooo.O$oooooooooooooooooooooooo OO.#ooooooooooooooo",
"ooooooooooo#o..#ooooooooooooooooooooooooo$O#oooooooooooooooo",
"+XXXXXXXXX+  ..X+XXXXXXXXXXXXXXXXXXXXX#oo$O@+XXXXXXXXXXXXXXX",
"+++++++++++@ ..@++++++++++++++++++++++X#o$O@++++++++++++++++",
"+++++++++++  ..@++++++++++++++++++++++X#o$O@++++++++++++++++",
"+++++++++++  ..@++++++++++++++++++++++X#o$O@++++++++++++++++",
"+++++++++++  ..@++++++++++++++++++++++X#o$O@++++++++++++++++",
"+++++++++++  ..@++++++++++++++++++++++X#o$O@++++++++++++++++",
"+++++++++++  ..@++++++++++++++++++++++X#o$O@++++++++++++++++",
"+++++++++++  ..@++++++++++++++++++++++X#o$O@++++++++++++++++",
"+++++++++++  ..X++++++++++++++++++++++X#o$O@++++++++++++++++",
"+++++++++++  .O$X+++++++++++++++++++++X#@.O@++++++++++++++++",
"XXXXXXXXXX+ $OOO$XXXXXXXXXXXXXXXXXXXXXX .OO.$@XXXXXXXXXXXXXX",
"............OOOOO......................OOOOOO...............",
"OOOOOOOOOOOOOOOOOOOOOOOOOOOOOOOOOOOOOOOOOOOOOOOOOOOOOOOOOOOO"
};
