/* XPM */
static char *_e2f8431a00344bcb6c4bdfe6bcd54f2eIb1cjmBoDhNRDiz[] = {
/* columns rows colors chars-per-pixel */
"60 60 41 1 ",
"  c #4C4C4C",
". c #585959",
"X c #5E5E5F",
"o c #494949",
"O c gray25",
"+ c #2C2C2C",
"@ c #463618",
"# c #5C4020",
"$ c gray33",
"% c #483818",
"& c #454544",
"* c #646464",
"= c #583D1C",
"- c #515151",
"; c #533B1A",
": c #3C3C3C",
"> c #7C7D7D",
", c DimGray",
"< c #3E3018",
"1 c #777777",
"2 c #6D6D6D",
"3 c #373737",
"4 c #727272",
"5 c #4D3817",
"6 c #443213",
"7 c #282828",
"8 c #4F4E4E",
"9 c #423A2D",
"0 c #202020",
"q c #848485",
"w c #323232",
"e c #372910",
"r c #604222",
"t c #694623",
"y c #5B5243",
"u c #4C4437",
"i c gray56",
"p c #764F2E",
"a c #504029",
"s c #6B5844",
"d c #9D9D9D",
/* pixels */
">>46=#tt=############%<=###;;%$,>>44187+++++o,,.X--   -.X*2>",
">42 %;tt=#####=######5<=##;%@$,14242>,37+++&,,$X8 -..******2",
"244* %rt#######;;####%<==5%&X*Xu===a *.3++o,,.*$-.X*XXXXXXXX",
"-2>2,o=t=######==###=@65%%.21&==%@<@6u2.o ,,.******.$-888888",
" -,1>y;t####=######=%6@a$4>4u=%@%@@@@<X114,.X..$$.$.........",
"  -,1*@;####=######@<9o,q1.;=%%%%@<@<euid4$X-oo oo ooooooooo",
"   -21$%;#########6<o$*12u5%@%%%%@<@@eudi.X-     o          ",
"    841 %;######66uy*14.=;%%%%%@%@<6@euiqX-   o        o    ",
"    &X>,8%=###66uy4112y;;@%%%%@<%@<<<eui4-   oo        o    ",
"    &.>4,8@6669&*>>2.#=;@%%%%%%@%%<e<< q4.8o   o            ",
"    &.41>28&&O X1>*a=;%%55%%%%@<%%@ee9X>2X8o o      o      o",
"   8Oo12*.$*2qiq1*#=;5;5%%%%%%%e%%@ee9*q4$         o&ooooo  ",
"   &:21.--$ Xdii*#5=55=5@%%%%%@e%%@eeu2>2$            oooo  ",
"  &:,>*-$$$ &4i>#;5=@%%%%%%%%%%e%%@e<-4>2.            oooo  ",
" &:,>1.$$$$ oo*$=%#;%%%%%%%%%%<e%%@e9X>>2$            oooo o",
"&:,>12X-$$$&o$ X=5#@5;@%%%%%%%<e%@<e92>>X                 o3",
":,XO 2*-$$8O-$**=%;%%%%%%%%%%%e<%@<eos=yXo       o       o::",
",Xu=a8,X-$&:-$$2#=;%%%%%%%%%%%e<@eeusr#u* &            &O3:&",
"Xu=;5%X, &OO-$$X,;;@%%%%%%%%@<e<e<y*;;=6y2 Oo       oO33w:&,",
"u=;@%694*O$&8$$ 1o5%%%%%%%%%<eee9X>2aaua,>, ::OOOO::33:::$4X",
"=;@%%@<.18-&8$$&2*<5@%%%%@%@ee<9.*444**2qi>, Ow333333OO:-42u",
";@%5%@eu1X O-$-3,>o6%%%%%%@e<9$,X &&oo&Xqdd>4.O:&O&&O::-22u=",
"@%%5%@6u4>XO--o:,>*<@@%%@@e982,. &:3:O:OXqii>4.O3:::3:$2>u=;",
"%%%@%@@<$>1Oo8o3,11&e<<<<e<.14. OO:3::O::,q>X,1.Ow33:$21.#;@",
"%;5%%6<6u21X:33.>>q,<eee<9o4,. O&&::::&::X4,oo,1$&oO821.u;%%",
"%=;@%<<@9,i1.$XqXps,$9O&8,>*- OO o::O:O3oX4Xooo,141q>1Xu5@%%",
"%%5;%6<@92>q142pt=##y*X,11*- OOOOO:3&::wo*, ooo 4qii>4y5%%%%",
"%%%5@<<6924444t#r###=sq41X- OOOoOO:3O:3:.2.-o&&o.212XXa5@;;;",
"%%%%@<@6u,q124X=###r5y>1*-$&OOOOOO:3O:w&,>>*X***X,>,$.u5@;;;",
"%%%%6<<<u4q,$*>1###;6yq*- -&OOOOOO:3O:+-Xppppppppt%ts*y5@;;;",
"%%%@<<69.12$.$*>1;;6u1,- &- OOOOOO:w&3O2stt###=##=5r;,s6%%%%",
"%%%@<e9.,*..$$$*>>*$,1. O&$ OOOOOOw3O+O*p#t#####r;5r;yy5@;%%",
"%%%@e9.*1*..$$$$*>iqi,oOO&$ OOOOOOw3O+$Xpttr#=###=5r;yy6%%%%",
"%%@e9.*4,$.$$$$$$X>ii1&OO&-8OOOOO:w33 1$pttr####r;5r;yo6%%%%",
"%%69X*4qX..-$$$$$$*id>&OO&-8&OOOO:ww:*1sprtr#####=;r;yX96%%%",
"%69X*21,..$.$$$$$-$*iq :O&-8oOOOO:++:44yptr######==r;y4X96%%",
"69.*214.$$$.$$$$$ -8,iX3:&$ oOOOO:+w 1*#prr######;=r;y11.966",
"9.*>q1*.$$$$$$$$$-&$Xq>&w:$o OOOO:+3*1s=ptr#####==#r5y>q>X99",
".*qdq*$$$$$X$$$$$-O-$X4-wwOO OOOOO+324yrpp######=##r5y.o$XXX",
"2>di2$$$$.$$$$.$$-Oo$$XX&w73 &OOO3wo2*r#tpr#####;##r5yO073oX",
":*dqX$$$XX$$$$.$$$&&.-.- $-33oOOOw3X1sr#tpr####=###r5y&7+70w",
"77*1-$$.XX.$$$$$ $&O8$$o.,.ww3:OOw32qs;r#pr######==r5y&7++07",
"+0828$$.X.$$$$$$$$&O $$:->q$+w3O:w-44,a=#tt########r5y&7++0+",
"0o*X$$$$$$.$$$$$ $&O8$O3*iiq$ww:3w*>2>4a=#t#####;=##6y&7+07+",
"o*,Xo$.X.$$$$$$$o$O3 O: 4X%&1.ww+:>1-w$2a;#t####;=#59XO7+07+",
"*422.o.X.$$$$$$$o$O3::8X$a5<&1*$$2>-+++$4,a=######59.2:00000",
">>4>>.& $$$$$$$-o$:w:8X$a5%<@<o>>>$+++++$4,a;###=59.,4>.& 88",
">21qiiX& $$$$$$oo-3:8X$a5@%<@<@oq2:w+++++$41.;;;%9.X-$-$$X1>",
"4yt#.q>X:&$$$$-ooO3-X$a5@%%<@<@@>8+7++77++-11.a9o.2.$$$$$&X>",
"tt#rt#X2XO:8$-o&O:$.$a5@%@%<%<694+++77+7+++-11X8$>, $--$$oX>",
"#=###rtry.&:8 O:O..ua5@%%@@<@<9. w++707+++++-11,>q8o8$$$8oX,",
"#=####=r5uyOOO:8*.a==%%%%@%<<<8-w++++7007++++-1>i28--$$- &*t",
"##==##==;;#aO: X$a=#5@%%%<@<<9Xww+7+++7007++++->>8$$$$$8oost",
"##;;##=#;;=5 -X.a5==%%%%%<@<9.$3++77+++0007++++-4*-$$$- &Xt#",
"##=###;;5@%9.X$a5%==%5%%%@<6 ,:3++7777+0000+++++$4$$$$oo8st#",
"######5%@69,11o5@%==%5%%%6<9X&+3++++++++00707++++$*o-ooo$t##",
"######;@<92qq>$@%%==@%%%%69X$3+3++++++++000707+++7OX& $orr##",
"#####=@<92,o$>*&@%==@%%%%6o,O++3++++77++7007707++0+*.$8Xp###",
"#####;692,&:O$>$@%==@%%%69X&+++3++++77++7000+007+7+2,&Xsr###",
"####5<9,q$:OOO$*@5;%%%%69-*37++3++7++++++000+700+7+,>,*p####"
};
