/* XPM */
static char *e85bef5ac4264b0c8df96417fe9bbaefjqNr1CIXXF37IpWc[] = {
/* columns rows colors chars-per-pixel */
"60 60 34 1 ",
"  c gray56",
". c #232323",
"X c gray22",
"o c #1E1E1E",
"O c gray30",
"+ c #464646",
"@ c #888888",
"# c #959595",
"$ c #A7A7A7",
"% c #9A9A9A",
"& c #3C3C3C",
"* c gray33",
"= c gray64",
"- c gray18",
"; c #818181",
": c #9F9F9F",
"> c #414141",
", c #282828",
"< c #343434",
"1 c gray36",
"2 c gray48",
"3 c gray45",
"4 c gray70",
"5 c #646464",
"6 c #6C6C6C",
"7 c #D7D7D7",
"8 c gray68",
"9 c #DFDFDF",
"0 c #C3C3C3",
"q c #CACACA",
"w c #BBBBBB",
"e c #161616",
"r c #D0D0D0",
"t c #EAEAEA",
/* pixels */
".X,X,<---,X->->->-&-X<<X<<.X,&->->-&<<<-<,X.X.<.<,<--<-<,X,X",
"***O*O**1&8t99r979997999t*.28wrqrqq0ww#5,XOOO+OOO+O*OO*O*O*O",
"*1*1111**&490qwq7r070w7q:<,2qw $2 @ ;:2&.-6%:#::%231+OOOOO*O",
"$=%=: %*<+470404ww40w8086-,%r$ ::$#=#:5+.-;7t99790q4==$$:==$",
"qrrq8:@+&>49=8%8#$$=:%4@1,-64 % =:$%@21+.-277844077qq7wq0qwq",
"$::%= 2>X&07=%8:8#=%%@8#5,<&# :$;:##%*O+.-2rw:%% ###;  # :@ ",
"w% $%@3&<X0t=@%:$#   #: 5,<+1##4:8::=O<>.-294%%@ #  =@%==@::",
"$8%: 3OXo-wq%:%%8# ;##$2*-.+O6:361166+<--<29q:#@@=;@=% ###@#",
"#:# ;OO<.X#9w%8@% #  @=36<e&O&*<XX&-,X.e&+O09 %@ # # $% 4=# ",
";322*O+-o&29==% ;  %@==25+o<+&.,...e.oeeX*&ww#: $#% 3;22@6@3",
"11**>.,o,X5q8 #;3@8% @ ;5O.<+><X**622@@3+O+4%3@626551OOOOOOO",
",,..-,,,-O>07   % @:%3:%5>.X>5%%q7tr70 6-++#255*OO>&>>>-&,&,",
"o-o-e--,XO>#7#=;;%=@ # @1>.o<:w974:8$:2*oX>+>+>&>&>-o..ooo.o",
"X&X&<XXX&++208@$#;@@2:=5*+.<&$7w$@@@;#6>.<,o<o.Xo,-,&X<XXX<X",
"*+X&&X>-,OO50 =%#$:% %:311.o+$t=@ =%#%;&.<>***O.++++O++++++>",
"::#%#% $*eO+8w% ;: 2#  ;1*,e+$t;#8% =#6>.-5$9rO+1@=%%::#%:::",
"r0rqqq4 *o+O24#$ ;#  $622*,o+$q8=; :#%5+.,:7q:oO#r7997799797",
"$# :#$@61o>O5%8;$%@ 3;161+,o+=0=@666*O*+,-0q=2o*87048848$844",
"$ #%% ;6*oX*> @3565+1***>,oo-%@5;*-<<<<<.+r4#@o*47=::#%# ;##",
"8 :: 8 1+.X*OOO+*+&>X,eeeooo.65-..eeooe.eO744;o*80#%# %%;; @",
"::# %@ 1+.<O+o,eoeeeee,-,,,.<+1*O+&&O+oX<;94%;o*:w@::%%##;#%",
" %62#=@1+,-* %@3511O<,O1533;;wwwrrww$;X,5w9$#3o*#0:@%  %23@ ",
"@;:  %3*>,,#t7qq0w8@OO1 r779q79rrr7743X,670::6oO w%=%%: #@% ",
"%$%$#@3+>,o0w @:% %;,*50tww=8:#888=:;*-,394@:1.O3$2;6323@@: ",
"2262;1*>>-.ww%$#$ 8*,O57r =@;$%%@%% @O-,590%%*.O-1OOO+**O165",
"1O*++&.,,oo0:$%:8 ;>-+594%:%:#%; = #;O<,6t%$ O.*,o.,,,,,,>>O",
",..ooe..,+<04:;8#=3+.>594@$ %2@2 @#$6O<,594$@O.*X<<<-<o,oo.,",
"&**1;;33@5ew03##=@;*,-57q @@2@;#:2 %@+-,6t$$$O.*XX>OO*OO*X<<",
"5 w779rqw o40=@2#=21,,5qr:@$ $3; 2%:3+,,3r% 8Oo14rw:6*O+O++*",
"647q048=83eq8#$2 8 5<-1474@ 2 2;=#=@6+,,374  Oe67;=q9rr77:>O",
"6948% :%#;o04: 8= :1X,& tw$: $@=22:#1O,,3r:$ Oe672 8%@$:@@>O",
"678 #:: %%e0w;:$ $25>eX;t0$:# ; 2 =;1>,<2q4= *e59$:@:8 %:5&+",
"69:%:#4 %2e40=$@#%:1&.+5rq$ :@ # =##O-,X3r=#:Oe5q%#4#;:%$6&+",
"67$:##%=%3e872#@$$@1+e<*$r8 ;% #= #2O,oX3q%%+O.5q=$=::@:85X>",
"674%$::#:2e%t@::@  1+e<+@7w@=@%@ 23*O,->1@6>XXX>$@@%;  3#6&X",
"698$:#%#:3e@9 # % %5+e-+5:4@61OX-<,-<.->OXX++OOXO-<X&XX&X>-&",
"67=@=:###2o674;4#@#5>e.++15O&<,e,o,e..,+O*++OOOO.-,......o,X",
"674: #$%=3.O9$::@=@1&e.>O&o-,.,<><&-&X<&OO1111*1551*11*1*1>+",
"69$%: %:@3--98 ;@: 5>e,XO15111151516163632%#=:=:=#:===$:8 >O",
"6r8:::#=2X.<94@:; @5O,e,1$88=8:88=$=$$84qr99ttttt9tt777742-+",
"6r8:=#4%3,,<9:: # #1O-oo*wqttttt99t9tttttttt9rqr7q07r0qq@1oO",
"60w:%: %6,<Xr48;$  1O-oe*wq07q7qrwrq4rrqw4$=:#$#$@ =%%:8;*X&",
"*0@%:;626--&0# =@$;5O-oeO=7w# @ ##: 8: #=$$ 2#@8$@ :#8:#3*,X",
"Ow=$:2*1&eX&$8;#= ;6O-oo-=t0 @ = % =:;#=8 % # @; :#:#:%=2*XX",
"+2;3*1*1-,>X =$;#@65O-o.e@978$@  @; #:#@:=;; $; $@3;@ # 21.X",
"+X.o-*O1<->>3615515*O-oo.@r7%;$#=;#=;2 :@:#$  =@@;#;#=2231.X",
"**O>-ooe,&>&XXX<XX<XX-o.e6qw$  =@=; # @##;=@ ;#   $;;#@;31.X",
"+O****O<o-+&&oo.oo.oo..o,6 5555556= 8#@;2  2  =@=@%%; @%31.X",
"+ ww04$#515+&,.<o.<o-----O+&X.<.<.*65;;323333333333323236O,X",
"O4qqq097qq$;335***OOO++>>*O+XX&>>X,+++>+>+>O>O>+>>>>>>>&>oX&",
"O4r=:%00q77qq0rqr00ww$:%@;63551+O&<-<<-<-<o,,-.e.o.ooooo,,&>",
"O49::8  %:8qw0wq0qq0r0qqqqrqq0@+*+>X--&<&>-.&-><&<&XX&<X>>+O",
"O4q::%;:# 2%2 %;2:%3 ;=#$4000%3,>O*;%2*-,<+O+X------<-<X>*O*",
"O4q$==@%= =4:@#%2##  %=%= :8=6*o+>39q7q8: 1*O;$::$$::#@25+O*",
"O8%23253;22;236;33322;22;3;;21*--X37#4q7rr6*590r0w0w008$w#-O",
"O:5>++++>+>+>+O>+++++>+++++>+++&o.3r4082 %6+:w@:;:=@ #%@4;o*",
"++,...........o.o...............e,**1125636+9=:=88%$$%8%#*o*",
"*>-X,.-e-,e<.e<o<e.-e,-e-,e<oo<o<.+O><-,,,,X65555515555511.O",
"****+++++++>XX&X&XX&X&&X&XX&XX&X&X>***><<<<X+Ooooo.oo.o.o.o*",
"&&&&&&&>&&&&&&&&&&&&&&&&&&&&&&&&&&&&&&&&&&&&&&XXXXXXXXXXXXX&"
};
