/* XPM */
static char *_f944f3d89094664ecd51e03d51265d6EMPShQ98e7NolLo2[] = {
/* columns rows colors chars-per-pixel */
"60 60 104 2 ",
"   c gray33",
".  c #910000",
"X  c #790000",
"o  c #970000",
"O  c #710000",
"+  c #9F0000",
"@  c #2D2828",
"#  c #940000",
"$  c #8B0000",
"%  c #820000",
"&  c #343B3B",
"*  c #2C2323",
"=  c #5B0000",
"-  c #840000",
";  c #464848",
":  c #6E0000",
">  c #690000",
",  c #5F0000",
"<  c #8D0000",
"1  c #870000",
"2  c #880000",
"3  c #450202",
"4  c #6B0000",
"5  c #9A0000",
"6  c #7E0000",
"7  c #810000",
"8  c #570202",
"9  c #7C0000",
"0  c #760000",
"q  c #9D0000",
"w  c #AA0000",
"e  c #BB0000",
"r  c #A20000",
"t  c #660000",
"y  c #D30000",
"u  c #2E4848",
"i  c #750000",
"p  c #B20101",
"a  c #CD0303",
"s  c #4A0101",
"d  c #8F0000",
"f  c #630000",
"g  c #1E3939",
"h  c #C00000",
"j  c #C60000",
"k  c #510000",
"l  c #584040",
"z  c #394040",
"x  c #253737",
"c  c #411414",
"v  c #B80000",
"b  c #DB0101",
"n  c #393A3A",
"m  c #A80000",
"M  c gray26",
"N  c #A71111",
"B  c #673A3A",
"V  c #182D2D",
"C  c #4E5151",
"Z  c #AE0000",
"A  c #231B1B",
"S  c #971818",
"D  c #424D4D",
"F  c #702626",
"G  c #3D0202",
"H  c #3D5656",
"J  c #654C4C",
"K  c #A60000",
"L  c #284343",
"P  c #524C4C",
"I  c gray19",
"U  c #2B1414",
"Y  c #AE1818",
"T  c #734242",
"R  c #A30000",
"E  c #3D0C0C",
"W  c #351111",
"Q  c #333636",
"!  c #753030",
"~  c #384B4B",
"^  c #BB1313",
"/  c #E80000",
"(  c #340707",
")  c #A11F1F",
"_  c #4F4343",
"`  c #4A3636",
"'  c #7F2F2F",
"]  c #233E3E",
"[  c #325050",
"{  c #351818",
"}  c #4D0909",
"|  c #5D2D2D",
" . c #383232",
".. c #852424",
"X. c #FC0000",
"o. c #790202",
"O. c #932F2F",
"+. c #5D4646",
"@. c #486262",
"#. c #843737",
"$. c #5D6565",
"%. c #4F1D1D",
"&. c #841111",
"*. c #910000",
/* pixels */
"n & & & & & & & & & & & n n n & & & & & & & & & & & & & & & & & & & n n n & & & & & & & & & & & & & & & & & & & & & & n ",
"C ` J l l l l +.+.l l l ; ;   l ` l l l l l l +.J J J J J l l l l l _ ; ; P J J J J J J l l l l ` ` ` l +.J +.l l l l n ",
"` X./ y b b a b y y b p ` D   X./ y b y b y y y y y y b a b y b b y &.z u ) X./ / / / / / y / y b b b a a j a j j j m M ",
"_ / v 5 v Z % p 5 R K : * ;   / p % R # o # 5 < 5 w + R 7 w i v v $ } & ~ ..h w w K m R w O p X v p K < w X w # Z r 0 @ ",
"_ y 2 # o % Z - 2 o 4 , * ;   y m o d r X 6 Z $ 7 + q i < K O R % > } Q H O.e 5 % = + % i 2 r X d K d $ o 9 r : . 0 = @ ",
"_ a 2 5 . 9 o m 0 5 7 G * ;   j # p q $ . . d . X # 7 6 1 d 9 1 $ > E Q ~ S o 2 7 $ q , K O < # q 1 . 6 p % o 6 o 2 k @ ",
"_ h < d . $ q % 6 # O s * ; P h j 1 R - < q 2 7 7 # o 4 2 < % 7 # t E I u ..r q - d q 0 # i X r 5 $ q $ K - K O # $ s @ ",
"_ h $ o 2 4 q i X 1 : s * z P Z Z 7 9 4 . O 1 < 4 O . X % . , 5 i O E I u ..w 1 t 4 d t % , 9 4 . i O : < , 7 < < 1 3 @ ",
"_ + % : 4 s 8 k s , f s * Q P 2 9 4 = = O f : : 8 , f = f k s , 8 k ( I u ..< f t 4 : = X , 4 t > 8 , f : 8 = O 8 f s @ ",
"_ | { c { { { U { U U U *  .P | { { c c W W W W W W { U U U U U { { { I P l c c c c c c W c c c { W W W U c c { { U { @ ",
"H u ] ] L ~ ~ ~ L x g g x ~ ~ D z z u u u ] g g u [ u u x g u ~ ~ ~ u D H u [ H H H H @.@.H H H u L Q I ~ L u [ u u H ] ",
"a v ^ p N N N N N N N N N N . ;   l b a ^ ^ ^ ^ ^ ^ Y ^ N N Y Y N N N N N N Y N Y N Y Y Y Y Y N N ..; D O.b ^ ^ ^ ^ ^ ^ ",
"h 5 R h o + w # 5 v 2 m + Z = n D T / 2 b p p r 7 h m . y Z Z o $ q m + K K # h $ v R + j a m y q E M u S X.q Z K e + e ",
"$ 5 2 q X < O 6 q 4 i q R X G I D B b 2 1 # 1 K - r : # 6 f $ o 6 o $ $ 0 w # : < . q i $ R 0 K f W M H O.y 7 # d 9 5 5 ",
"i K q d - X o 9 2 o : # # O 3 @ & B j o.q $ . < O 9 $ O 5 1 > K 1 X > - % r X : % q X 5 i R 5 O t ( Q ~ O.K $ K K 6 r 7 ",
"+ 1 < r % X - 6 d K 4 o i : 3 @ & B j O Z < # % : R O > + > $ + 9 6 < $ X r , d 0 # 9 - i + 0 r f ( I u ..j - q - q 5 9 ",
"0 r 4 o : - d 9 $ 7 O r K X G @ D J b < : o - + 4 7 f 9 0 f + $ i , d $ O i > K X 0 K O - r 0 r t ( @ ~ ..5 d w , # 1 1 ",
": q f f 8 O 9 6 6 7 k % O > 3 I D J v $ X i = $ 6 7 O 4 1 , O < 0 $ > 6 i d t 9 7 > % 8 4 < O 7 f ( @ H ..v 9 : = , # 4 ",
"( G 3 3 3 G G G G G 3 3 ( ( E n ; l $ } 8 8 8 8 8 8 8 8 8 = 8 } s s s s s 3 } } } s s s s } } 3 G ( I D F o.( } 3 ( k ( ",
"& L g V g L g V V g L x V V x u D u [ u L g g g g g & & z u u g L g V V V V g ] ] ] V V V ] ] ] ] L ~ H H u x g L L ] Q ",
"  O.O.F F #.' ' ' F ' F F F F ! ! #.! ! ! F F F F F ` C P ' O...#.' ' F F ' ' ' ! #.' F F ! ! ! ' #.! ! F ' F F #.! ! P ",
"J X.a b a j a a a h p j v j y p j p j p y v m b v < ` C   X./ v / y y j b a a y j p + e v R v e w p h v h p Z h q e < n ",
"_ / < 5 5 . o o.6 # q . 2 # p - 7 < $ # o : $ r . s * M   y Z 7 Z 7 # : d % d 0 5 0 = q O o.9 q : # 5 6 7 # O 5 : 6 G @ ",
"` a 6 q 5 < 9 9 9 . . # o $ R : 6 r > R % O % 1 q , A ; $.a j < 5 0 o i - 9 K i 5 6 o # , w : 2 + d % . 2 p % 5 X > s @ ",
"_ v . R 1 : 6 , 7 o < 9 6 + $ X O $ 2 X Z O i q , 3 * C $.a 1 # 7 5 9 : o 9 5 - - X < q 6 $ i 9 o # . - 1 r % m X : 3 @ ",
"P e X 7 $ = d - 6 5 X 1 O + 1 : 9 + % 0 o t $ i # , * ;   a w - < - # 2 r i # X $ > t 1 8 5 = # O # O m d X 8 : $ 0 3 @ ",
"P j - t X 4 > i , > : < > 2 X 4 d 6 : > $ - 2 % 1 = * n C j p O 5 i 1 > 6 : 9 t 1 i 7 k < > O q s 1 f 1 2 % f 6 % O 3 @ ",
"_ p 5 f > 4 t f f f > 4 > 4 > > 8 k k k 8 8 8 = s 3 * Q   w O > : > > f t > > t 4 4 O = > 8 f t 8 f , = , t k = 6 t 3 @ ",
"; _  .@ @ @ @ @ @ @ @ @ @ @ @ @ @ @ @  . .I @ @ @ @ @ M ; _ @ @ @ @ @ @ @ * A A A A *  . . .@ A A A @ @ @ @ @ @ @ @ @ @ ",
"        C ; z M M Q Q M C $.$.    C ; ; ; M n Q M n Q M   ; ; ; C n C ; C M n n n n ;     ; ; n n M ; ; C M ; C ; ;   n ",
"e e e e e h e e h p B z C a b a y a y y j v e e v e e v v e v e e v e e v F C @.N / y y a y y a y y j v e v e e v e v e ",
"K m R m K h K e v , * ; z j R 4 o 0 w 1 9 5 < Z X d # > + r f m # 9 o $ 6 U M H Y e i q O R o > r X % d 1 < d 5 7 q 0 5 ",
"q X # q 5 d 1 + X k A M C a > K 6 d 5 2 m 6 2 5 d O % % 5 2 0 5 4 q < 6 1 U P @.Y h = 5 0 r - 0 q 5 5 6 2 # 9 < 2 < # : ",
"2 % r . $ q % q $ k * ; z j 9 . K 6 R - X # - # o 4 q = 1 $ 5 7 9 o # # 0 { ; $.^ Z 1 R O R 7 m d + d . $ 1 . 5 q 9 # X ",
"w - 9 R 5 R - $ - k @ ; C a # O < X r O 4 # $ < 9 6 q t 1 < , o # > o q t { ; @.^ 5 # K - $ i + . O . d < # d q 1 9 X % ",
"# 7 d q 9 # 2 o $ k @ ; D p t Z 7 = m $ 6 $ 5 < r X 6 = O o 4 K - # 5 7 7 U M H Y h 4 + 5 - Z 2 < # 5 d $ % $ 5 2 d p i ",
"8 , X 0 = : i = , k * ; D o O d d 4 . 4 7 % 9 : 9 > O 4 d X t 9 > $ 9 , 8 W n H N K , $ : # $ 7 d - 1 - % 7 X 9 i 1 $ , ",
"U W W W E W W E W W * M C F } E E E E c c %.c c ( E E E ( E c W E c c c W { M ; F } c c c c c %.c c E E E E c E E c W U ",
"D u [ ] L g L u L ] x L H H ] g g L L u u [ H [ L g g g u u z z ~ ] L ] L L [ H H [ ] [ u H @.@.[ u u g ] u [ u [ ] [ Q ",
"M ^ Y N Y N Y Y S S S S S S S S S S ) S S ) ) ) ) S S S ) S M C ` ^ Y N Y N Y Y Y Y S ) S ) ) ) ) ) S S ) ) ) ) ) S S _ ",
"_ / v m p Z q j K r e + p o q p < Z r Z w + q 5 5 h q < p > n D B X.h m K m Z 5 Z K p 6 Z r X p # 5 v # m K R # o e :  .",
"P y . 4 + : i r 2 6 q 4 - 8 # o , o = o . 4 % 2 d d # 4 o G I D B a 2 - : O 4 8 9 = $ 0 5 = $ : # : 7 9 o 0 1 q 4 - 3 @ ",
"_ y 9 O 5 > 2 f # X < d X 7 K 4 # $ 0 = 5 0 O 9 X : 7 $ X 3 @ z B j $ # 8 0 o $ = < 2 , 5 o 4 5 : - $ - # d 1 2 t o k @ ",
"` y o < r O 7 o 9 $ K - q t 1 5 O o = # 1 > K 1 < r R X 0 3 @ & B b - 9 + > # 0 - - d 9 9 t 9 0 o X # d d d 4 # $ K s @ ",
"P y o t q 1 7 2 2 9 o O 5 0 q > : 5 = $ $ # 1 O $ X % O + 3 A z J b $ = $ - O , # > o t d , q t 1 7 o 4 5 < 2 o 4 O 3 @ ",
"` a . O # : % 0 o % o < - 1 r . t 2 O k 1 X O $ - 7 5 0 q 3 A z T e 9 d O i $ X > + 1 = . i 7 : o 9 d 7 . $ X o : o k @ ",
"P o 8 , = = = , = , s 3 3 s 3 3 3 3 3 3 s 3 3 3 3 3 3 3 3 G @ D +.# 8 , , = = = = = k k k k k 3 3 3 3 s 3 3 s 3 s G G @ ",
"z ~ x x x x x x x x x z ~ z x V V @ @ Q x V V V V x x V V x x D z ~ x x x x x V V V x L z z I V x x x V V V V x x x x x ",
"T | T | T B T B B B T T T T B T |   C J ! | | | B B T T T | B B T | T B B B B B B B T T   C P T B T B | %.c %.| B B T B ",
"j y e b j Z v p e j e h Z e v h 1 M H ! X.b y b j y h y j j m h Z h h e v v v p v v m # M z J X.a h y a h e h p h w e v ",
"7 - , r 6 0 O 1 : R % 7 = d 4 d ( I D ! h $ # 5 > 9 3 0 - $ 9 2 8 q d O o.0 % , - 0 : G  .D J a o.f 2 X O 6 7 - 2 o.# 8 ",
"w i X # # 1 9 % 0 d , 6 7 0 X 7 G Q D ! e 9 - < - t > - 7 2 1 . 7 % < 4 $ 0 O > 5 > d k I D J h t m t < r o : q O 2 7 , ",
"# 7 k d O X d t q o = $ 2 = R : G Q ~ F y O k + 0 - O r : + 8 m 7 9 % 6 d X 2 : 0 % 4 3 @ D J y - O > # # X $ 9 . = > 5 ",
"O 5 X 5 f $ O q 6 # < 8 0 2 . O G Q ~ F j t $ - % 5 , 2 i 6 , + t # f % O 9 # = > $ > 3 @ D +.a 6 X d q X % - i X # : w ",
"f r - X X R : d X O O 6 i m 4 . G I ~ ' q = p 9 - O 9 2 s % , % , K , 7 < t 2 f $ 4 O s @ z l h > K : > - # 6 6 s i . > ",
"6 5 4 o , 2 7 O 6 o f + i X - 1 G I D T a o.= R 9 < > % f R : q f 2 . t m 6 7 9 $ 4 $ s @ & l h t > O 9 7 $ 5 1 d t K > ",
"= = k t k k = 8 8 t 8 = 8 k , s G I D ! r 3 3 8 s , k 8 8 , 8 t 8 8 f k , , 8 = = 8 k 3 A D J m G s , , = = , = t = , = ",
"* * * * * * * * * * * * * * * * * I C P ` @ I @ * * * * * * * * * * * * * A A A A * A A A n P ` * * * * * A A A A A * * ",
"n C n C Q Q z ; ; ; ; C   n M ; ; ;         C ; ; C ; ; ; C ; M & ; ; M n Q n n Q n M z Q M C D M z C M ; ; M Q n M ; ; ",
"                                                                                                                        "
};
